<svg xmlns="http://www.w3.org/2000/svg" xmlns:xlink="http://www.w3.org/1999/xlink" width="1200" zoomAndPan="magnify" viewBox="0 0 900 773.999994" height="1032" preserveAspectRatio="xMidYMid meet" version="1.0"><defs><clipPath id="c14f2e1993"><path d="M 373 584 L 539 584 L 539 754.996094 L 373 754.996094 Z M 373 584 " clip-rule="nonzero"/></clipPath><clipPath id="c5eb18376b"><path d="M 117.613281 19.246094 L 782.441406 19.246094 L 782.441406 737 L 117.613281 737 Z M 117.613281 19.246094 " clip-rule="nonzero"/></clipPath></defs><rect x="-90" width="1080" fill="#ffffff" y="-77.399999" height="928.799993" fill-opacity="1"/><rect x="-90" width="1080" fill="#3bb1bf" y="-77.399999" height="928.799993" fill-opacity="1"/><path fill="#f6b737" d="M 645.675781 350.53125 C 635.085938 397.011719 611.175781 436.101562 579.910156 471.46875 C 563.976562 489.488281 547.417969 507.335938 535.96875 528.679688 C 529.992188 539.820312 525.632812 551.761719 522.910156 564.101562 C 520.1875 576.445312 520.851562 588.789062 519.015625 601.152344 C 515.882812 622.242188 495.871094 625.679688 477.816406 625.570312 C 452.25 625.410156 426.640625 622.828125 401.542969 617.945312 C 399.375 618.789062 396.417969 618.113281 396.019531 615.46875 C 394.234375 603.507812 392.492188 591.519531 390.097656 579.660156 C 385.15625 555.195312 377.066406 531.570312 361.542969 511.707031 C 347.644531 493.933594 330.289062 479.285156 315.15625 462.628906 C 285.996094 430.554688 269.191406 388.988281 265.628906 345.925781 C 262.390625 306.8125 270.265625 265.9375 290.902344 232.269531 C 312.890625 196.410156 348.433594 173.265625 388.207031 161.257812 C 432.082031 148.015625 482.355469 144.136719 527.703125 150.386719 C 571.28125 156.398438 614.910156 177.308594 635.734375 217.972656 C 656.171875 257.882812 655.414062 307.757812 645.675781 350.53125 " fill-opacity="1" fill-rule="nonzero"/><path fill="#f59a3d" d="M 518.777344 493.171875 C 502.675781 487.460938 499.933594 464.570312 484.808594 481.382812 C 483.1875 483.1875 469.394531 555.152344 470.25 558.417969 C 482.710938 605.882812 543.117188 501.804688 518.777344 493.171875 Z M 499.371094 197.410156 C 508.679688 192.082031 539.554688 196.21875 547.023438 185.359375 C 558.910156 168.070312 532.296875 161.382812 519.078125 159.835938 C 480.113281 155.285156 485.296875 205.457031 499.371094 197.410156 Z M 625.320312 271.445312 C 625.410156 330.484375 605.957031 402.660156 565.925781 447.710938 C 554.367188 460.714844 530.894531 483 516.054688 462.519531 C 507.53125 450.761719 518.96875 394.207031 518.503906 380.648438 C 517.285156 344.914062 509.304688 310.910156 505.207031 275.609375 C 501.800781 246.195312 506.070312 236.667969 533.453125 224.863281 C 584.753906 202.738281 625.222656 207.019531 625.320312 271.445312 " fill-opacity="1" fill-rule="nonzero"/><g clip-path="url(#c14f2e1993)"><path fill="#c49261" d="M 538.363281 665.800781 C 537.863281 676.796875 531.460938 687.632812 520.8125 689.695312 C 524.59375 700.378906 518.601562 711.820312 509.378906 718.359375 C 509.636719 728.445312 507.035156 737.652344 498.222656 744.539062 C 488.09375 752.445312 474.375 754.75 461.84375 754.847656 C 444.039062 754.984375 405.765625 746.507812 407.425781 723.152344 C 401.328125 721.628906 395.324219 719.390625 390.824219 715.128906 C 386.179688 710.726562 383.933594 704.46875 386.558594 698.355469 C 388.296875 694.308594 391.402344 691.589844 394.996094 689.546875 C 384.449219 684.722656 375.847656 676.316406 374.226562 664.046875 C 372.832031 653.507812 378.421875 643.277344 387.785156 639.132812 C 379.753906 629.597656 372.488281 618.710938 373.964844 605.6875 C 374.929688 597.167969 380.472656 589.847656 388.097656 587.054688 C 388.535156 586.296875 389.285156 585.773438 390.316406 585.898438 C 390.84375 585.964844 391.378906 586.027344 391.902344 586.089844 C 393.378906 585.867188 394.90625 585.785156 396.472656 585.90625 C 397.425781 585.980469 398.179688 586.355469 398.742188 586.886719 C 414.992188 588.699219 431.285156 589.882812 447.652344 589.738281 C 466.320312 589.574219 484.410156 586.933594 502.90625 584.910156 C 515.171875 583.574219 529.023438 586.75 532.636719 600.199219 C 535.800781 612.003906 532.46875 624.261719 525.777344 634.097656 C 534.542969 642.0625 538.90625 653.851562 538.363281 665.800781 " fill-opacity="1" fill-rule="nonzero"/></g><g clip-path="url(#c5eb18376b)"><path fill="#2e2e30" d="M 503.617188 721.003906 C 490.914062 729.734375 476.875 730.484375 461.894531 730.457031 C 445.28125 730.429688 430.039062 728.140625 414.027344 723.910156 C 411.671875 723.285156 410.042969 726.769531 412.324219 727.941406 C 428.003906 736.03125 447.492188 736.105469 464.714844 736.257812 C 479.0625 736.382812 496.097656 736.148438 506.792969 725.117188 C 508.792969 723.0625 506.144531 719.261719 503.617188 721.003906 Z M 513.394531 687.125 C 504.6875 688.308594 496.160156 691.625 487.460938 693.230469 C 478.035156 694.964844 468.480469 695.957031 458.894531 696.246094 C 440.308594 696.796875 421.984375 694.246094 403.9375 689.925781 C 400.765625 689.164062 399.46875 693.859375 402.59375 694.808594 C 421.289062 700.457031 440.867188 702.773438 460.378906 702.382812 C 477.839844 702.039062 499.980469 700.792969 515.710938 692.621094 C 519.007812 690.90625 516.488281 686.707031 513.394531 687.125 Z M 459.078125 647.679688 C 477.089844 646.792969 499.113281 645.972656 515.6875 638.371094 C 517.945312 637.328125 516.84375 633.484375 514.414062 633.667969 C 505.679688 634.3125 497.054688 637.140625 488.398438 638.574219 C 478.195312 640.265625 467.894531 641.425781 457.5625 641.890625 C 438.144531 642.765625 419.449219 640.109375 400.171875 638.871094 C 397.445312 638.691406 396.96875 642.878906 399.535156 643.570312 C 418.414062 648.648438 439.691406 648.640625 459.078125 647.679688 Z M 551.429688 343.324219 C 551.109375 341.730469 548.976562 340.609375 545.71875 340.328125 C 545.257812 340.289062 544.792969 340.265625 544.328125 340.265625 C 536.980469 340.265625 529.546875 345.105469 524.5 350.121094 C 528.050781 351.359375 531.734375 352 535.269531 352 C 539.375 352 543.085938 351.144531 546.304688 349.445312 C 550.273438 347.347656 551.738281 344.859375 551.429688 343.324219 Z M 507.496094 351.761719 L 507.238281 351.667969 L 507.046875 351.507812 C 504.898438 349.679688 502.894531 347.644531 501.089844 345.46875 C 497.953125 341.714844 495.257812 337.371094 493.074219 332.535156 C 487.589844 336.300781 481.335938 338.285156 474.886719 338.285156 C 464.761719 338.285156 455.117188 333.328125 448.703125 324.933594 C 441.207031 334.386719 432.101562 339.566406 422.894531 339.566406 C 419.535156 339.566406 416.167969 338.875 412.859375 337.507812 C 411.660156 343.988281 410.160156 349.238281 408.1875 353.898438 C 407.785156 354.839844 407.125 355.984375 406.425781 357.195312 C 405.476562 358.824219 403.898438 361.542969 404.003906 362.476562 C 404.160156 363.824219 406.761719 366.851562 408.660156 369.0625 C 410.320312 370.996094 411.882812 372.824219 412.675781 374.289062 C 414.957031 378.511719 416.949219 383.355469 418.765625 389.097656 C 425.566406 410.632812 426.707031 433.988281 427.238281 454.1875 C 427.820312 476.226562 427.257812 498.65625 426.707031 520.355469 C 426.578125 525.417969 426.453125 530.476562 426.335938 535.535156 C 426.054688 548.164062 425.675781 561.308594 425.222656 574.589844 C 425.199219 575.347656 425.230469 576.722656 425.269531 578.453125 C 425.308594 580.410156 425.34375 582.367188 425.347656 584.28125 C 435.71875 584.808594 446.089844 585.246094 456.546875 584.996094 C 469.363281 584.699219 482.007812 583.515625 494.671875 582.148438 C 493.609375 576.382812 493.414062 568.75 493.386719 561.027344 C 493.378906 558.835938 493.375 556.945312 493.304688 555.820312 C 491.816406 531.046875 491.8125 504.269531 493.277344 471.546875 C 493.550781 465.457031 493.78125 459.335938 494.015625 453.203125 C 494.777344 433.226562 495.5625 412.574219 497.832031 392.558594 C 498.671875 385.195312 499.6875 379.28125 501.042969 373.9375 C 501.472656 372.242188 502.417969 369.765625 503.503906 366.898438 C 505.078125 362.777344 508.746094 353.121094 507.496094 351.761719 Z M 405.574219 319.386719 C 405.667969 318.726562 405.769531 318.039062 405.871094 317.324219 C 407.1875 308.296875 409.183594 294.648438 405.453125 288.203125 C 404.265625 286.140625 402.5625 284.910156 400.914062 284.910156 C 399.695312 284.910156 398.496094 285.5625 397.335938 286.84375 C 394.8125 289.617188 396.382812 295.824219 397.316406 299.53125 L 397.511719 300.324219 C 399.488281 308.285156 402.136719 314.558594 405.574219 319.386719 Z M 450.035156 304.761719 C 453.132812 299.589844 456.527344 293.488281 457.097656 287.867188 C 457.34375 285.410156 456.472656 281.394531 454.933594 279.695312 C 454.558594 279.28125 454.203125 279.074219 453.863281 279.074219 C 453.542969 279.074219 452.632812 279.28125 451.230469 281.199219 C 446.789062 287.257812 447.894531 296.835938 450.035156 304.761719 Z M 497.835938 313.929688 C 505.328125 304.332031 508.65625 296.652344 507.730469 291.089844 C 507.171875 287.75 504.191406 284.824219 501.34375 284.824219 C 499.03125 284.824219 497.835938 286.820312 497.234375 288.5 C 495.21875 294.101562 495.425781 302.652344 497.835938 313.929688 Z M 387.492188 363.542969 C 385.59375 362.886719 383.597656 362.550781 381.609375 362.550781 C 377.871094 362.550781 374.5625 363.730469 372.113281 365.902344 C 373.8125 366.714844 375.605469 367.121094 377.460938 367.121094 C 381.324219 367.121094 384.828125 365.402344 387.492188 363.542969 Z M 560.902344 341.792969 C 561.777344 349.042969 556.261719 358.316406 544.328125 361.226562 C 541.714844 361.863281 538.886719 362.183594 535.917969 362.183594 C 534.027344 362.183594 532.054688 362.050781 530.070312 361.792969 C 528.839844 361.632812 526.816406 360.875 524.46875 359.996094 C 522.179688 359.132812 519.039062 357.953125 517.898438 357.953125 C 515.328125 358.683594 511.746094 364.644531 509.109375 388.867188 L 508.941406 390.34375 C 502.429688 446.820312 500.710938 503.996094 503.839844 560.292969 C 503.871094 560.878906 504.03125 562.171875 504.226562 563.808594 C 504.9375 569.714844 505.589844 575.882812 505.59375 580.933594 C 507.8125 580.6875 510.023438 580.441406 512.246094 580.191406 C 515.738281 579.808594 516.464844 585.660156 513.070312 586.289062 C 494.5625 589.734375 475.332031 590.820312 456.546875 591.175781 C 437.875 591.53125 418.4375 591.417969 400.011719 588.140625 C 397.121094 587.625 397.863281 583.015625 400.691406 583.105469 C 405.234375 583.25 409.773438 583.46875 414.300781 583.703125 C 414.324219 574.40625 414.921875 561.53125 416.058594 544.121094 C 416.371094 539.429688 416.609375 535.730469 416.640625 534.132812 C 417.023438 512.707031 417.371094 487.433594 417.019531 462.445312 C 416.71875 441.214844 415.589844 418.578125 409.347656 396.925781 C 409.148438 396.230469 408.914062 395.351562 408.640625 394.34375 C 406.941406 388.027344 402.960938 373.246094 397.8125 371.082031 C 397.808594 371.074219 397.703125 371.035156 397.449219 371.035156 C 395.921875 371.035156 392.78125 372.339844 389.742188 373.605469 C 385.34375 375.429688 380.363281 377.5 376.445312 377.5 C 376.160156 377.5 375.882812 377.488281 375.613281 377.464844 C 369.953125 377.011719 362.582031 374.679688 360.429688 369.59375 C 359.539062 367.5 359.234375 364.085938 362.828125 359.707031 C 366.996094 354.652344 373.359375 351.863281 380.761719 351.863281 C 381.546875 351.863281 382.335938 351.890625 383.117188 351.960938 C 384.832031 352.097656 386.886719 352.921875 388.867188 353.714844 C 390.738281 354.464844 392.675781 355.25 393.871094 355.25 C 393.945312 355.25 394.019531 355.242188 394.089844 355.238281 C 396.503906 354.964844 397.894531 351.457031 399.238281 348.058594 L 400.03125 346.082031 C 401.316406 342.910156 403.082031 338.566406 403.082031 335.46875 C 403.085938 331.40625 402.253906 330.414062 400.242188 328.035156 C 399.484375 327.140625 398.621094 326.117188 397.628906 324.726562 C 391.933594 316.785156 383.152344 296.722656 387.589844 284.136719 C 389.316406 279.238281 392.820312 276.027344 398.011719 274.589844 C 399.585938 274.152344 401.097656 273.929688 402.5 273.929688 C 405.839844 273.929688 408.664062 275.148438 410.90625 277.550781 C 417.410156 284.527344 417.109375 299.734375 416.6875 305.945312 C 416.582031 307.40625 416.109375 309.917969 415.566406 312.832031 C 414.761719 317.09375 413.09375 325.980469 413.996094 327.421875 C 415.578125 329.65625 418.628906 330.128906 420.914062 330.128906 C 425.414062 330.128906 430.796875 328.308594 433.40625 326.546875 C 436.570312 324.410156 440.332031 320.980469 441.589844 318.144531 C 443.023438 314.929688 442.378906 312.808594 441.402344 309.59375 C 441 308.261719 440.539062 306.75 440.195312 304.992188 C 437.953125 293.476562 438.707031 284.371094 442.429688 277.945312 C 445.117188 273.308594 450.386719 268.632812 456.09375 268.632812 C 458.308594 268.632812 460.40625 269.328125 462.316406 270.6875 C 470.652344 276.628906 467.640625 289.382812 465.957031 294.585938 C 465.191406 296.957031 462.945312 300.441406 460.566406 304.128906 C 457.867188 308.3125 454.167969 314.042969 454.359375 316.1875 C 454.753906 320.628906 464.246094 326.46875 469.03125 327.8125 C 470.558594 328.242188 472.546875 328.480469 474.625 328.480469 C 481.117188 328.480469 488.496094 326.296875 489.347656 321.507812 C 489.898438 318.359375 488.742188 313.960938 487.621094 309.714844 C 486.65625 306.054688 485.65625 302.269531 485.652344 298.976562 C 485.652344 293.671875 487.398438 287.566406 490.328125 282.652344 C 493.707031 276.992188 498.050781 273.878906 502.558594 273.878906 C 506.652344 273.878906 510.546875 276.378906 514.15625 281.308594 C 519.25 288.28125 518.933594 297.886719 513.234375 309.089844 L 506.070312 319.980469 C 505.3125 320.933594 504.640625 321.703125 504.066406 322.359375 C 501.605469 325.191406 501.457031 325.359375 503.238281 330.199219 C 504.875 334.628906 508.5625 338.914062 510.613281 341.082031 C 511.78125 342.304688 513.734375 344.359375 514.390625 344.359375 C 514.707031 344.359375 515.417969 343.875 516.238281 343.3125 C 516.894531 342.863281 517.671875 342.335938 518.652344 341.75 C 520.589844 340.597656 522.375 339.375 524.105469 338.191406 C 529.113281 334.765625 533.847656 331.53125 541.082031 330.59375 C 542.472656 330.414062 543.835938 330.324219 545.121094 330.324219 C 555.746094 330.324219 560.238281 336.25 560.902344 341.792969 Z M 697.953125 531.09375 C 687.4375 522.386719 676.042969 514.800781 665.566406 506.019531 C 655.527344 497.617188 646.429688 487.886719 635.886719 480.128906 C 632.542969 477.664062 627.832031 482.511719 630.164062 485.851562 C 637.890625 496.910156 648.828125 505.878906 659.210938 514.375 C 669.691406 522.941406 680.648438 531.691406 692.742188 537.851562 C 696.835938 539.929688 701.921875 534.378906 697.953125 531.09375 Z M 780.171875 431.734375 C 766.832031 422 751.722656 414.503906 737.121094 406.859375 C 723.734375 399.851562 708.476562 389.527344 693.402344 387.132812 C 689.304688 386.476562 685.058594 391.488281 688.902344 394.863281 C 700.457031 405.027344 717.261719 410.539062 730.914062 417.488281 C 745.667969 425 760.058594 433.585938 775.289062 440.082031 C 780.988281 442.515625 785.269531 435.457031 780.171875 431.734375 Z M 702.144531 235.082031 C 715.003906 233.011719 727.621094 228.527344 740.109375 224.898438 C 752.601562 221.257812 765.628906 218.207031 777.695312 213.335938 C 783.0625 211.171875 781.109375 203.570312 775.292969 204.609375 C 761.976562 206.996094 748.820312 211.535156 735.824219 215.257812 C 723.402344 218.824219 710.597656 221.816406 698.679688 226.867188 C 693.632812 229.007812 697.5625 235.820312 702.144531 235.082031 Z M 658.664062 69.171875 C 661.90625 64.671875 654.539062 60.554688 651.289062 64.863281 C 642.140625 76.984375 632.769531 88.949219 623.183594 100.722656 C 614.476562 111.40625 604.652344 121.601562 596.957031 133.03125 C 594.164062 137.175781 600.191406 141.308594 603.613281 138.175781 C 614.546875 128.164062 623.628906 115.367188 632.75 103.730469 C 641.628906 92.390625 650.25 80.855469 658.664062 69.171875 Z M 456.550781 111.382812 C 458.378906 97.148438 455.988281 81.707031 455.683594 67.351562 C 455.367188 52.664062 455.507812 37.980469 455.386719 23.296875 C 455.339844 17.835938 447.382812 17.953125 446.992188 23.296875 C 445.882812 38.46875 445.664062 53.714844 445.734375 68.925781 C 445.796875 83 444.710938 98.792969 448.105469 112.527344 C 449.363281 117.625 455.976562 115.855469 456.550781 111.382812 Z M 258.640625 130.34375 C 249.773438 118.6875 241.355469 105.964844 231.292969 95.308594 C 227.839844 91.65625 221.789062 96.355469 224.355469 100.667969 C 232.171875 113.796875 242.539062 125.867188 251.722656 138.066406 C 260.449219 149.671875 268.6875 162.90625 279.148438 173.027344 C 282.707031 176.460938 288.246094 172.117188 285.929688 167.789062 C 278.78125 154.445312 267.785156 142.371094 258.640625 130.34375 Z M 205.585938 288.636719 C 215.375 289.871094 225.679688 291.898438 235.546875 291.015625 C 240.875 290.53125 242.28125 283.207031 236.839844 281.488281 C 228.371094 278.820312 219.09375 278.382812 210.316406 277.296875 C 199.8125 276 189.316406 274.613281 178.835938 273.140625 C 160.039062 270.503906 141.296875 266.96875 122.429688 264.890625 C 116.8125 264.269531 115.777344 273.296875 121.109375 274.648438 C 140.003906 279.441406 159.578125 282.125 178.84375 284.976562 C 187.742188 286.296875 196.660156 287.515625 205.585938 288.636719 Z M 250.394531 448.660156 C 238.191406 457.019531 224.585938 463.386719 211.847656 470.910156 C 200.042969 477.882812 188.105469 488.105469 175.261719 492.765625 C 170.964844 494.328125 168.542969 488.570312 171.121094 485.652344 C 175.914062 480.238281 182.785156 476.570312 188.828125 472.691406 C 195.078125 468.679688 201.394531 464.777344 207.78125 461.003906 C 220.375 453.566406 233.246094 445.699219 247.113281 440.878906 C 251.953125 439.1875 254.121094 446.09375 250.394531 448.660156 " fill-opacity="1" fill-rule="nonzero"/></g><path fill="#ffffff" d="M 322.5625 398.023438 C 320.335938 391.695312 319.503906 385.191406 315.90625 379.464844 C 315.027344 378.058594 312.898438 378.328125 312.414062 379.917969 C 308.40625 393.070312 314.203125 408.988281 320.792969 420.453125 C 326.203125 429.871094 334.78125 445.222656 346.558594 446.578125 C 348.007812 446.738281 349.324219 445.1875 349.292969 443.84375 C 349.027344 433.238281 337.164062 424.359375 331.742188 415.980469 C 328.085938 410.347656 324.796875 404.359375 322.5625 398.023438 Z M 360.859375 231.402344 C 344.96875 241.144531 333.671875 256.871094 326.773438 273.980469 C 318.523438 294.453125 319.183594 315.917969 314.183594 336.996094 C 313.019531 341.925781 304.648438 342.347656 303.78125 336.996094 C 300.085938 314.039062 305.625 287.445312 314.828125 266.332031 C 323.140625 247.257812 336.757812 231.496094 355.152344 221.644531 C 361.570312 218.207031 367.070312 227.597656 360.859375 231.402344 " fill-opacity="1" fill-rule="nonzero"/></svg>